<?xml version="1.0" encoding="UTF-8"?>
<svg width="400" height="400" viewBox="0 0 400 400" xmlns="http://www.w3.org/2000/svg">
  <defs>
    <style>
      .white { fill: #FFFFFF; }
      .white-stroke { stroke: #FFFFFF; stroke-width: 2; fill: none; }
    </style>
  </defs>
  
  <!-- Fond transparent ou sombre pour démonstration -->
  <rect width="400" height="400" fill="#1A2B4A" opacity="1"/>
  
  <!-- Hexagone central -->
  <polygon class="white" 
           points="200,120 250,150 250,210 200,240 150,210 150,150"/>
  
  <!-- Petits hexagones -->
  <polygon class="white" 
           points="200,50 220,62 220,86 200,98 180,86 180,62" opacity="0.8"/>
  <polygon class="white" 
           points="280,95 300,107 300,131 280,143 260,131 260,107" opacity="0.8"/>
  <polygon class="white" 
           points="280,265 300,277 300,301 280,313 260,289 260,265" opacity="0.8"/>
  <polygon class="white" 
           points="200,310 220,322 220,346 200,358 180,346 180,322" opacity="0.8"/>
  <polygon class="white" 
           points="120,265 140,277 140,301 120,313 100,289 100,265" opacity="0.8"/>
  <polygon class="white" 
           points="120,95 140,107 140,131 120,143 100,131 100,107" opacity="0.8"/>
  
  <!-- Lignes de connexion -->
  <line class="white-stroke" x1="200" y1="120" x2="200" y2="98" opacity="0.5"/>
  <line class="white-stroke" x1="250" y1="150" x2="280" y2="143" opacity="0.5"/>
  <line class="white-stroke" x1="250" y1="210" x2="280" y2="265" opacity="0.5"/>
  <line class="white-stroke" x1="200" y1="240" x2="200" y2="310" opacity="0.5"/>
  <line class="white-stroke" x1="150" y1="210" x2="120" y2="265" opacity="0.5"/>
  <line class="white-stroke" x1="150" y1="150" x2="120" y2="143" opacity="0.5"/>
  
  <!-- Nœud central -->
  <circle cx="200" cy="180" r="5" class="white"/>
</svg>

